HIERARCHY
ROOT Hips
{
	OFFSET 0.000000 0.000000 0.000000 
	CHANNELS 6 Xposition Yposition Zposition Zrotation Yrotation Xrotation
	JOINT LeftUpLeg
	{
		OFFSET 1.363060 -1.794630 0.839290 
		CHANNELS 3 Zrotation Yrotation Xrotation
		JOINT LeftLeg
		{
			OFFSET 2.448110 -6.726130 0.000000 
			CHANNELS 3 Zrotation Yrotation Xrotation
			JOINT LeftFoot
			{
				OFFSET 2.562200 -7.039590 0.000000 
				CHANNELS 3 Zrotation Yrotation Xrotation
				JOINT LeftToeBase
				{
					OFFSET 0.157640 -0.433110 2.322550 
					CHANNELS 3 Zrotation Yrotation Xrotation
					End Site
					{
						OFFSET 0.000000 0.000000 0.000000 
					}
				}
			}
		}
	}
	JOINT RightUpLeg
	{
		OFFSET -1.305520 -1.794630 0.839290 
		CHANNELS 3 Zrotation Yrotation Xrotation
		JOINT RightLeg
		{
			OFFSET -2.542530 -6.985550 0.000000 
			CHANNELS 3 Zrotation Yrotation Xrotation
			JOINT RightFoot
			{
				OFFSET -2.568260 -7.056230 0.000000 
				CHANNELS 3 Zrotation Yrotation Xrotation
				JOINT RightToeBase
				{
					OFFSET -0.164730 -0.452590 2.363150 
					CHANNELS 3 Zrotation Yrotation Xrotation
					End Site
					{
						OFFSET 0.000000 0.000000 0.000000 
					}
				}
			}
		}
	}
	JOINT Spine
	{
		OFFSET 0.028270 2.035590 -0.193380 
		CHANNELS 3 Zrotation Yrotation Xrotation
		JOINT Spine1
		{
			OFFSET 0.056720 2.048850 -0.042750 
			CHANNELS 3 Zrotation Yrotation Xrotation
			JOINT Neck1
			{
				OFFSET -0.054170 1.746240 0.172020 
				CHANNELS 3 Zrotation Yrotation Xrotation
				JOINT Head
				{
					OFFSET 0.104070 1.761360 -0.123970 
					CHANNELS 3 Zrotation Yrotation Xrotation
					End Site
					{
						OFFSET 0.000000 0.000000 0.000000 
					}
				}
			}
			JOINT LeftArm
			{
				OFFSET 3.362410 1.200890 -0.311210 
				CHANNELS 3 Zrotation Yrotation Xrotation
				JOINT LeftForeArm
				{
					OFFSET 4.983000 -0.000000 -0.000000 
					CHANNELS 3 Zrotation Yrotation Xrotation
					JOINT LeftHand
					{
						OFFSET 3.483560 -0.000000 -0.000000 
						CHANNELS 3 Zrotation Yrotation Xrotation
						JOINT LeftHandIndex1
						{
							OFFSET 0.715260 -0.000000 -0.000000 
							CHANNELS 3 Zrotation Yrotation Xrotation
							End Site
							{
								OFFSET 0.000000 0.000000 0.000000 
							}
						}
					}
				}
			}
			JOINT RightArm
			{
				OFFSET -3.136600 1.374050 -0.404650 
				CHANNELS 3 Zrotation Yrotation Xrotation
				JOINT RightForeArm
				{
					OFFSET -5.241900 -0.000000 -0.000000 
					CHANNELS 3 Zrotation Yrotation Xrotation
					JOINT RightHand
					{
						OFFSET -3.444170 -0.000000 -0.000000 
						CHANNELS 3 Zrotation Yrotation Xrotation
						JOINT RightHandIndex1
						{
							OFFSET -0.622530 -0.000000 -0.000000 
							CHANNELS 3 Zrotation Yrotation Xrotation
							End Site
							{
								OFFSET 0.000000 0.000000 0.000000 
							}
						}
					}
				}
			}
		}
	}
}
MOTION
Frames: 6
Frame Time: 0.041667
-8.354998 17.921737 4.611138 -174.946601 -4.840804 -170.632221 -5.237437 -7.697025 -50.228476 11.761455 18.562767 65.090885 0.726935 -1.868429 19.840015 3.123600 10.892500 31.918000 29.110002 4.517418 -20.600945 -3.877167 -10.950355 33.803181 -1.304918 -2.090372 -22.425399 -0.003200 0.363300 -0.998300 0.138201 1.082054 -2.611011 -2.149677 0.400995 0.087516 1.105556 -2.181884 15.481159 -1.172200 -0.766700 4.743100 -86.968912 4.762846 46.759717 87.358283 -58.938246 -50.624366 -1.263646 1.995277 5.955246 -7.125000 0.000000 0.000000 76.935925 -2.872690 65.793845 -44.889435 50.152200 -19.778660 0.807411 -0.549431 5.778422 7.125000 0.000000 0.000000 
-8.355841 17.920472 4.701842 -174.935380 -4.109895 -170.448514 -4.926750 -7.471551 -50.790644 12.309298 18.787402 66.717236 0.862839 -0.897481 21.030140 3.165000 10.957600 32.136900 28.953355 4.855795 -21.047908 -3.894315 -10.956339 33.848064 -1.295945 -1.478317 -22.052416 -0.006000 0.500400 -1.374900 0.118801 1.353272 -2.690092 -2.090415 0.531642 0.070812 0.919249 -2.098203 15.608602 -1.207200 -0.738800 4.770900 -87.407377 5.487295 46.183076 84.462133 -59.225549 -48.057426 -1.259486 2.018640 5.481683 -7.125000 0.000000 0.000000 76.065089 -2.130483 66.720752 -45.732618 50.592454 -20.406895 0.790717 -0.510043 5.351365 7.125000 0.000000 0.000000 
-8.361537 17.917518 4.785690 -174.770784 -3.527824 -170.331121 -4.472755 -7.308542 -51.199802 12.856647 18.995694 68.337117 0.986744 -0.192297 22.077265 3.138300 10.915600 31.995900 28.972516 4.870853 -21.502898 -3.911155 -10.962892 33.889007 -1.299174 -0.699586 -21.726184 -0.016900 0.840500 -2.309900 0.137532 1.588944 -2.701548 -2.092421 0.646923 0.200708 0.818051 -2.026779 15.805522 -1.207700 -0.712200 4.848400 -87.886112 6.067616 45.605700 81.381908 -59.440423 -45.445695 -1.241468 2.046612 5.652108 -7.125000 0.000000 0.000000 75.209062 -1.286779 67.519503 -46.549801 51.015483 -21.027623 0.773700 -0.478129 4.825755 7.125000 0.000000 0.000000 
-8.367654 17.920788 4.868273 -174.623374 -3.286157 -170.429053 -4.040686 -7.378358 -51.320157 13.390536 19.180307 69.907626 1.122553 0.460633 23.169384 3.122300 10.890400 31.911100 29.012246 4.612029 -21.823081 -3.923088 -10.967246 33.914225 -1.303628 0.019318 -21.463462 -0.030300 1.124000 -3.089900 0.190602 1.678824 -2.688562 -2.055509 0.683343 0.216492 0.443582 -1.993573 15.830088 -1.342600 -0.713700 4.849500 -88.420815 6.579738 45.063379 78.274593 -59.551992 -42.921571 -1.233936 2.073437 6.048896 -7.125000 0.000000 0.000000 74.318628 -0.349600 68.237903 -47.218728 51.354387 -21.537843 0.754087 -0.447462 4.374370 7.125000 0.000000 0.000000 
-8.371978 17.926272 4.951805 -174.575244 -2.939312 -170.535890 -3.775168 -7.325660 -51.379969 13.898367 19.341098 71.405354 1.267407 0.873314 24.319448 3.011000 10.712900 31.317500 28.940512 4.455383 -22.083376 -3.928191 -10.959820 33.900439 -1.292735 0.796606 -21.077783 -0.030700 1.130900 -3.109000 0.227423 1.765395 -2.675770 -1.944951 0.716509 0.221027 0.317871 -1.883711 16.046654 -1.360000 -0.667700 4.927900 -88.950074 7.245723 44.398912 75.375385 -59.539259 -40.619714 -1.233023 2.095388 6.582752 -7.125000 0.000000 0.000000 73.416296 0.670390 69.059445 -47.851241 51.672399 -22.029039 0.731601 -0.411343 3.638393 7.125000 0.000000 0.000000 
-8.375142 17.930597 5.035126 -174.596382 -2.705875 -170.652317 -3.564108 -7.385670 -51.329989 14.391617 19.481666 72.831539 1.442077 1.638081 25.559255 3.117800 10.883400 31.887700 28.818378 4.342711 -22.320358 -3.925044 -10.944462 33.855542 -1.251143 1.287268 -20.560246 -0.034800 1.204800 -3.312500 0.244733 1.827350 -2.650768 -1.845882 0.737018 0.225797 0.239138 -1.831454 16.319086 -1.364900 -0.647200 5.044300 -89.428447 7.841272 43.836808 72.408857 -59.393920 -38.271229 -1.191859 2.121054 7.043255 -7.125000 0.000000 0.000000 72.557151 1.736586 69.723078 -48.381025 51.940411 -22.445142 0.706142 -0.372632 2.801619 7.125000 0.000000 0.000000 
